# xmcd
#
# Track frame offsets: 
#        150
#        16950
#        31699
#        47137
#        66114
#        83271
#        108016
#        123848
#        146567
#        166609
#        180266
#        202854
#        221250
#        243666
#        259768
#
# Disc length: 3705 seconds
#
# Revision: 0
# Processed by: cddbd v1.5.2PL0 Copyright (c) Steve Scherf et al.
# Submitted via: ExactAudioCopy v1.0b1
#
DISCID=af0e770f
DTITLE=Lil' Cliff and The Cliffhangers - The Lovin' Kind
DYEAR=2011
DGENRE=Blues
TTITLE0=The Lovin' Kind
TTITLE1=Tweny-Nine Ways (To My Baby's Door)
TTITLE2=Three Cool Cats
TTITLE3=Ace Don't Ace Me Out
TTITLE4=Creole Belle
TTITLE5=Heaven Can Wait
TTITLE6=Oopin' Doopin' Doopin'
TTITLE7=Spank That Monkey
TTITLE8=That Ain't What I Gave You My Love For
TTITLE9=Down In Louisiana
TTITLE10=Up The Line
TTITLE11=Lonely Avenue
TTITLE12=Rockin'
TTITLE13=Queen For A Day
TTITLE14=I'd Rather Be On Beale
EXTD=
EXTT0=
EXTT1=
EXTT2=
EXTT3=
EXTT4=
EXTT5=
EXTT6=
EXTT7=
EXTT8=
EXTT9=
EXTT10=
EXTT11=
EXTT12=
EXTT13=
EXTT14=
PLAYORDER=
